<svg width="40" height="40" viewBox="0 0 40 40" fill="none" xmlns="http://www.w3.org/2000/svg">
<g id="ic:round-notifications-none">
<path id="Vector" d="M32.1501 28.8167L30.0001 26.6667V18.3333C30.0001 13.2167 27.2668 8.93332 22.5001 7.79999V6.66666C22.5001 5.28332 21.3834 4.16666 20.0001 4.16666C18.6168 4.16666 17.5001 5.28332 17.5001 6.66666V7.79999C12.7168 8.93332 10.0001 13.2 10.0001 18.3333V26.6667L7.85009 28.8167C6.80009 29.8667 7.53342 31.6667 9.01675 31.6667H30.9668C32.4668 31.6667 33.2001 29.8667 32.1501 28.8167ZM26.6668 28.3333H13.3334V18.3333C13.3334 14.2 15.8501 10.8333 20.0001 10.8333C24.1501 10.8333 26.6668 14.2 26.6668 18.3333V28.3333ZM20.0001 36.6667C21.8334 36.6667 23.3334 35.1667 23.3334 33.3333H16.6668C16.6668 34.2174 17.0179 35.0652 17.6431 35.6903C18.2682 36.3155 19.116 36.6667 20.0001 36.6667Z" fill="#E7E2E2" fill-opacity="0.81"/>
</g>
</svg>
